<svg width="18" height="34" viewBox="0 0 18 34" fill="none" xmlns="http://www.w3.org/2000/svg">
<path d="M7.69141 33.3242V30.0234C6.08984 29.9974 4.65104 29.8672 3.375 29.6328C2.09896 29.3984 1.03125 29.1185 0.171875 28.793V26.8008C1.08333 27.1784 2.20964 27.5039 3.55078 27.7773C4.89193 28.0508 6.27214 28.2005 7.69141 28.2266V17.25C6.18099 16.7422 4.85286 16.1953 3.70703 15.6094C2.57422 15.0104 1.6888 14.2682 1.05078 13.3828C0.41276 12.4844 0.09375 11.3516 0.09375 9.98438C0.09375 8.60417 0.419271 7.4388 1.07031 6.48828C1.72135 5.52474 2.61979 4.78255 3.76562 4.26172C4.91146 3.72786 6.22005 3.42188 7.69141 3.34375V0.648438H9.25391V3.32422C10.4518 3.35026 11.6042 3.48698 12.7109 3.73438C13.8307 3.98177 14.9115 4.33984 15.9531 4.80859L15.2695 6.48828C14.2539 6.04557 13.2318 5.71354 12.2031 5.49219C11.1745 5.25781 10.1914 5.12109 9.25391 5.08203V15.8242C10.8555 16.3581 12.2357 16.918 13.3945 17.5039C14.5664 18.0898 15.4648 18.8125 16.0898 19.6719C16.7279 20.5312 17.0469 21.6576 17.0469 23.0508C17.0469 25.1602 16.3307 26.7943 14.8984 27.9531C13.4792 29.112 11.5977 29.7826 9.25391 29.9648V33.3242H7.69141ZM9.25391 28.1484C11.0247 28.0312 12.4375 27.5625 13.4922 26.7422C14.5469 25.9089 15.0742 24.6979 15.0742 23.1094C15.0742 22.1589 14.8529 21.3776 14.4102 20.7656C13.9674 20.1406 13.3164 19.6003 12.457 19.1445C11.5977 18.6888 10.5299 18.2461 9.25391 17.8164V28.1484ZM7.69141 15.2773V5.10156C6.58464 5.16667 5.60807 5.38802 4.76172 5.76562C3.91536 6.13021 3.2513 6.65104 2.76953 7.32812C2.30078 8.00521 2.06641 8.83854 2.06641 9.82812C2.06641 10.8698 2.30078 11.7227 2.76953 12.3867C3.2513 13.0508 3.91536 13.6107 4.76172 14.0664C5.60807 14.5091 6.58464 14.9128 7.69141 15.2773Z" fill="#242121"/>
</svg>
